{
DisplayStrings = (
/uniE034
);
date = "2013-05-04 02:32:56 +0000";
designer = Readability;
designerURL = "http://readability.com";
familyName = "readabilicons";
featurePrefixes = (
{
automatic = 1;
code = "languagesystem DFLT dflt;\012languagesystem latn dflt;\012";
name = Languagesystems;
}
);
fontMaster = (
{
ascender = 550;
capHeight = 500;
descender = "-50";
id = "027024AE-E532-4028-BEC3-F9EC457E971E";
xHeight = 500;
}
);
glyphs = (
{
glyphname = uniE001;
lastChange = "2013-09-13 19:54:44 +0000";
layers = (
{
layerId = "027024AE-E532-4028-BEC3-F9EC457E971E";
name = Regular;
paths = (
{
closed = 1;
nodes = (
"541 0 LINE",
"541 308 LINE",
"72 308 LINE",
"72 0 LINE"
);
},
{
closed = 1;
nodes = (
"392 229 LINE",
"392 181 LINE",
"220 181 LINE",
"220 229 LINE"
);
},
{
closed = 1;
nodes = (
"141 470 LINE",
"40 414 LINE",
"40 343 LINE",
"572 343 LINE",
"572 414 LINE",
"472 470 LINE"
);
}
);
width = 612;
}
);
unicode = E001;
},
{
glyphname = uniE002;
lastChange = "2013-05-30 21:43:14 +0000";
layers = (
{
layerId = "027024AE-E532-4028-BEC3-F9EC457E971E";
name = Regular;
paths = (
{
closed = 1;
nodes = (
"312 322 LINE",
"312 420 LINE",
"390 420 LINE",
"276 547 LINE",
"161 420 LINE",
"238 420 LINE",
"238 322 LINE"
);
},
{
closed = 1;
nodes = (
"337 377 LINE",
"337 351 LINE",
"435 351 LINE",
"483 301 LINE",
"64 301 LINE",
"118 353 LINE",
"211 353 LINE",
"211 377 LINE",
"116 377 LINE",
"40 301 LINE",
"40 -6 LINE",
"510 -6 LINE",
"510 301 LINE",
"436 377 LINE"
);
},
{
closed = 1;
nodes = (
"189 175 LINE",
"189 222 LINE",
"361 222 LINE",
"361 175 LINE"
);
}
);
width = 550;
}
);
unicode = E002;
},
{
glyphname = uniE003;
lastChange = "2013-05-22 04:33:45 +0000";
layers = (
{
layerId = "027024AE-E532-4028-BEC3-F9EC457E971E";
name = Regular;
paths = (
{
closed = 1;
nodes = (
"128 183 LINE",
"111 130 LINE",
"160 130 LINE",
"160 77 LINE",
"20 77 LINE",
"20 130 LINE",
"58 130 LINE",
"158 416 LINE",
"252 416 LINE",
"354 129 LINE",
"390 129 LINE",
"390 77 LINE",
"212 77 LINE",
"212 129 LINE",
"253 129 LINE",
"236 183 LINE"
);
},
{
closed = 1;
nodes = (
"221 218 LINE",
"182 342 LINE",
"180 342 LINE",
"142 218 LINE"
);
},
{
closed = 1;
nodes = (
"388 155 OFFCURVE",
"403 170 OFFCURVE",
"412 180 CURVE SMOOTH",
"426 194 OFFCURVE",
"449 208 OFFCURVE",
"513 217 CURVE SMOOTH",
"539 221 OFFCURVE",
"540 221 OFFCURVE",
"540 226 CURVE SMOOTH",
"540 243 LINE SMOOTH",
"540 273 OFFCURVE",
"527 285 OFFCURVE",
"500 285 CURVE SMOOTH",
"491 285 OFFCURVE",
"481 283 OFFCURVE",
"473 280 CURVE",
"480 274 OFFCURVE",
"484 265 OFFCURVE",
"484 253 CURVE SMOOTH",
"484 235 OFFCURVE",
"468 221 OFFCURVE",
"446 221 CURVE SMOOTH",
"419 221 OFFCURVE",
"406 239 OFFCURVE",
"406 259 CURVE SMOOTH",
"406 305 OFFCURVE",
"463 326 OFFCURVE",
"522 326 CURVE SMOOTH",
"599 326 OFFCURVE",
"617 287 OFFCURVE",
"617 238 CURVE SMOOTH",
"617 134 LINE SMOOTH",
"617 123 OFFCURVE",
"622 121 OFFCURVE",
"628 121 CURVE SMOOTH",
"633 121 OFFCURVE",
"638 126 OFFCURVE",
"642 146 CURVE",
"670 139 LINE",
"661 95 OFFCURVE",
"642 76 OFFCURVE",
"605 76 CURVE SMOOTH",
"574 76 OFFCURVE",
"555 92 OFFCURVE",
"550 130 CURVE",
"547 130 LINE",
"531 89 OFFCURVE",
"500 76 OFFCURVE",
"464 76 CURVE SMOOTH",
"423 76 OFFCURVE",
"388 100 OFFCURVE",
"388 140 CURVE"
);
},
{
closed = 1;
nodes = (
"540 191 LINE",
"536 190 OFFCURVE",
"531 189 OFFCURVE",
"518 187 CURVE SMOOTH",
"489 181 OFFCURVE",
"480 170 OFFCURVE",
"480 151 CURVE SMOOTH",
"480 137 OFFCURVE",
"488 123 OFFCURVE",
"508 123 CURVE SMOOTH",
"530 123 OFFCURVE",
"540 145 OFFCURVE",
"540 177 CURVE"
);
}
);
width = 690;
}
);
unicode = E003;
},
{
glyphname = uniE004;
lastChange = "2013-05-22 04:34:02 +0000";
layers = (
{
layerId = "027024AE-E532-4028-BEC3-F9EC457E971E";
name = Regular;
paths = (
{
closed = 1;
nodes = (
"103 492 LINE SMOOTH",
"56 492 OFFCURVE",
"30 465 OFFCURVE",
"30 420 CURVE SMOOTH",
"30 74 LINE SMOOTH",
"30 25 OFFCURVE",
"56 0 OFFCURVE",
"101 0 CURVE SMOOTH",
"449 0 LINE SMOOTH",
"495 0 OFFCURVE",
"521 27 OFFCURVE",
"521 72 CURVE SMOOTH",
"521 419 LINE SMOOTH",
"521 466 OFFCURVE",
"496 492 OFFCURVE",
"448 492 CURVE SMOOTH"
);
},
{
closed = 1;
nodes = (
"374 222 LINE",
"374 51 LINE",
"324 51 LINE",
"324 222 LINE",
"276 222 LINE",
"276 281 LINE",
"324 281 LINE",
"324 281 OFFCURVE",
"324 307 OFFCURVE",
"324 336 CURVE SMOOTH",
"324 379 OFFCURVE",
"337 419 OFFCURVE",
"402 419 CURVE SMOOTH",
"429 419 OFFCURVE",
"448 416 OFFCURVE",
"448 416 CURVE",
"446 356 LINE",
"446 356 OFFCURVE",
"427 356 OFFCURVE",
"405 356 CURVE SMOOTH",
"382 356 OFFCURVE",
"374 346 OFFCURVE",
"374 328 CURVE SMOOTH",
"374 325 OFFCURVE",
"374 325 OFFCURVE",
"374 325 CURVE",
"374 320 OFFCURVE",
"374 308 OFFCURVE",
"374 281 CURVE",
"449 281 LINE",
"445 222 LINE"
);
}
);
width = 551;
}
);
unicode = E004;
},
{
glyphname = uniE005;
lastChange = "2013-05-22 04:34:15 +0000";
layers = (
{
layerId = "027024AE-E532-4028-BEC3-F9EC457E971E";
name = Regular;
paths = (
{
closed = 1;
nodes = (
"544 397 OFFCURVE",
"523 391 OFFCURVE",
"501 388 CURVE",
"524 402 OFFCURVE",
"541 423 OFFCURVE",
"549 449 CURVE",
"528 437 OFFCURVE",
"504 427 OFFCURVE",
"480 422 CURVE",
"460 444 OFFCURVE",
"431 457 OFFCURVE",
"400 457 CURVE SMOOTH",
"339 457 OFFCURVE",
"290 408 OFFCURVE",
"290 346 CURVE SMOOTH",
"290 338 OFFCURVE",
"291 329 OFFCURVE",
"293 321 CURVE",
"202 326 OFFCURVE",
"121 370 OFFCURVE",
"67 437 CURVE",
"58 421 OFFCURVE",
"52 402 OFFCURVE",
"52 381 CURVE SMOOTH",
"52 343 OFFCURVE",
"72 309 OFFCURVE",
"101 289 CURVE",
"83 290 OFFCURVE",
"66 295 OFFCURVE",
"51 303 CURVE",
"51 302 OFFCURVE",
"51 302 OFFCURVE",
"51 301 CURVE SMOOTH",
"51 248 OFFCURVE",
"89 203 OFFCURVE",
"139 193 CURVE",
"130 190 OFFCURVE",
"120 189 OFFCURVE",
"110 189 CURVE SMOOTH",
"103 189 OFFCURVE",
"96 189 OFFCURVE",
"90 191 CURVE",
"104 147 OFFCURVE",
"144 115 OFFCURVE",
"192 114 CURVE",
"155 84 OFFCURVE",
"107 66 OFFCURVE",
"56 66 CURVE SMOOTH",
"47 66 OFFCURVE",
"38 67 OFFCURVE",
"30 68 CURVE",
"78 36 OFFCURVE",
"136 18 OFFCURVE",
"198 18 CURVE SMOOTH",
"399 18 OFFCURVE",
"509 187 OFFCURVE",
"509 334 CURVE SMOOTH",
"509 338 OFFCURVE",
"509 343 OFFCURVE",
"509 348 CURVE",
"531 364 OFFCURVE",
"549 383 OFFCURVE",
"564 405 CURVE"
);
}
);
width = 594;
}
);
unicode = E005;
},
{
glyphname = uniE006;
lastChange = "2013-05-22 04:38:58 +0000";
layers = (
{
layerId = "027024AE-E532-4028-BEC3-F9EC457E971E";
name = Regular;
paths = (
{
closed = 1;
nodes = (
"593 58 OFFCURVE",
"584 50 OFFCURVE",
"574 50 CURVE SMOOTH",
"39 50 LINE SMOOTH",
"29 50 OFFCURVE",
"20 58 OFFCURVE",
"20 69 CURVE SMOOTH",
"20 389 LINE",
"307 157 LINE",
"593 389 LINE",
"593 69 LINE SMOOTH"
);
},
{
closed = 1;
nodes = (
"39 421 LINE",
"574 421 LINE",
"307 206 LINE"
);
}
);
width = 613;
}
);
unicode = E006;
},
{
glyphname = uniE007;
lastChange = "2013-05-22 04:34:50 +0000";
layers = (
{
layerId = "027024AE-E532-4028-BEC3-F9EC457E971E";
name = Regular;
paths = (
{
closed = 1;
nodes = (
"554 314 OFFCURVE",
"550 317 OFFCURVE",
"545 317 CURVE SMOOTH",
"360 317 LINE",
"302 494 LINE SMOOTH",
"301 498 OFFCURVE",
"297 501 OFFCURVE",
"293 501 CURVE SMOOTH",
"288 501 OFFCURVE",
"284 498 OFFCURVE",
"283 494 CURVE SMOOTH",
"225 317 LINE",
"40 317 LINE SMOOTH",
"35 317 OFFCURVE",
"31 314 OFFCURVE",
"30 310 CURVE SMOOTH",
"29 306 OFFCURVE",
"30 301 OFFCURVE",
"34 299 CURVE SMOOTH",
"184 189 LINE",
"126 12 LINE SMOOTH",
"125 7 OFFCURVE",
"126 3 OFFCURVE",
"130 0 CURVE SMOOTH",
"133 -2 OFFCURVE",
"138 -2 OFFCURVE",
"142 0 CURVE SMOOTH",
"293 110 LINE",
"443 0 LINE SMOOTH",
"445 -1 OFFCURVE",
"447 -2 OFFCURVE",
"449 -2 CURVE SMOOTH",
"451 -2 OFFCURVE",
"453 -1 OFFCURVE",
"455 0 CURVE SMOOTH",
"459 3 OFFCURVE",
"460 7 OFFCURVE",
"459 12 CURVE SMOOTH",
"401 189 LINE",
"551 299 LINE SMOOTH",
"555 301 OFFCURVE",
"556 306 OFFCURVE",
"555 310 CURVE SMOOTH"
);
}
);
width = 585;
}
);
unicode = E007;
},
{
glyphname = uniE008;
lastChange = "2013-05-22 04:35:06 +0000";
layers = (
{
layerId = "027024AE-E532-4028-BEC3-F9EC457E971E";
name = Regular;
paths = (
{
closed = 1;
nodes = (
"336 495 LINE SMOOTH",
"362 495 OFFCURVE",
"384 474 OFFCURVE",
"384 448 CURVE SMOOTH",
"384 330 LINE",
"336 330 LINE",
"336 424 LINE",
"77 424 LINE",
"77 118 LINE",
"336 118 LINE",
"336 188 LINE",
"384 188 LINE",
"384 47 LINE SMOOTH",
"384 21 OFFCURVE",
"362 0 OFFCURVE",
"336 0 CURVE SMOOTH",
"77 0 LINE SMOOTH",
"51 0 OFFCURVE",
"30 21 OFFCURVE",
"30 47 CURVE SMOOTH",
"30 448 LINE SMOOTH",
"30 474 OFFCURVE",
"51 495 OFFCURVE",
"77 495 CURVE SMOOTH"
);
},
{
closed = 1;
nodes = (
"289 164 OFFCURVE",
"283 176 OFFCURVE",
"190 268 CURVE",
"246 322 OFFCURVE",
"289 373 OFFCURVE",
"289 373 CURVE",
"289 295 LINE",
"403 303 OFFCURVE",
"449 197 OFFCURVE",
"432 174 CURVE",
"430 195 OFFCURVE",
"370 247 OFFCURVE",
"289 238 CURVE",
"289 164 LINE"
);
}
);
width = 465;
}
);
unicode = E008;
},
{
glyphname = uniE009;
lastChange = "2013-05-22 04:35:24 +0000";
layers = (
{
layerId = "027024AE-E532-4028-BEC3-F9EC457E971E";
name = Regular;
paths = (
{
closed = 1;
nodes = (
"121 244 LINE",
"277 400 LINE",
"329 348 LINE",
"225 244 LINE",
"277 192 LINE",
"433 348 LINE",
"297 484 LINE SMOOTH",
"286 495 OFFCURVE",
"268 495 OFFCURVE",
"257 484 CURVE SMOOTH",
"38 264 LINE SMOOTH",
"27 253 OFFCURVE",
"27 235 OFFCURVE",
"38 224 CURVE SMOOTH",
"257 4 LINE SMOOTH",
"268 -7 OFFCURVE",
"286 -7 OFFCURVE",
"297 4 CURVE SMOOTH",
"517 224 LINE SMOOTH",
"528 235 OFFCURVE",
"528 253 OFFCURVE",
"517 264 CURVE SMOOTH",
"485 296 LINE",
"277 88 LINE"
);
}
);
width = 555;
}
);
unicode = E009;
},
{
glyphname = uniE010;
lastChange = "2013-05-22 04:35:43 +0000";
layers = (
{
layerId = "027024AE-E532-4028-BEC3-F9EC457E971E";
name = Regular;
paths = (
{
closed = 1;
nodes = (
"512 266 LINE SMOOTH",
"545 266 OFFCURVE",
"572 239 OFFCURVE",
"572 206 CURVE SMOOTH",
"572 85 LINE SMOOTH",
"572 52 OFFCURVE",
"545 25 OFFCURVE",
"512 25 CURVE SMOOTH",
"482 25 LINE",
"482 115 LINE",
"121 115 LINE",
"121 25 LINE",
"90 25 LINE SMOOTH",
"57 25 OFFCURVE",
"30 52 OFFCURVE",
"30 85 CURVE SMOOTH",
"30 206 LINE SMOOTH",
"30 239 OFFCURVE",
"57 266 OFFCURVE",
"90 266 CURVE SMOOTH"
);
},
{
closed = 1;
nodes = (
"391 522 LINE",
"391 432 LINE",
"482 432 LINE",
"482 221 LINE",
"452 221 LINE",
"452 402 LINE",
"361 402 LINE",
"361 492 LINE",
"151 492 LINE",
"151 221 LINE",
"121 221 LINE",
"121 522 LINE"
);
},
{
closed = 1;
nodes = (
"452 90 LINE",
"452 0 LINE",
"151 0 LINE",
"151 90 LINE"
);
}
);
width = 602;
}
);
unicode = E010;
},
{
glyphname = uniE011;
lastChange = "2013-05-22 04:36:00 +0000";
layers = (
{
layerId = "027024AE-E532-4028-BEC3-F9EC457E971E";
name = Regular;
paths = (
{
closed = 1;
nodes = (
"366 530 LINE",
"366 -26 LINE",
"40 252 LINE"
);
}
);
width = 406;
}
);
unicode = E011;
},
{
glyphname = uniE012;
lastChange = "2013-05-22 04:36:07 +0000";
layers = (
{
layerId = "027024AE-E532-4028-BEC3-F9EC457E971E";
name = Regular;
paths = (
{
closed = 1;
nodes = (
"40 530 LINE",
"40 -26 LINE",
"366 252 LINE"
);
}
);
width = 406;
}
);
unicode = E012;
},
{
glyphname = uniE013;
lastChange = "2013-10-15 02:22:23 +0000";
layers = (
{
layerId = "027024AE-E532-4028-BEC3-F9EC457E971E";
name = Regular;
paths = (
{
closed = 1;
nodes = (
"230 430 LINE",
"230 465 LINE",
"230 465 OFFCURVE",
"230 465 OFFCURVE",
"247 465 CURVE SMOOTH",
"315 465 LINE SMOOTH",
"332 465 OFFCURVE",
"332 465 OFFCURVE",
"332 465 CURVE",
"332 430 LINE"
);
},
{
closed = 1;
nodes = (
"383 430 LINE",
"383 482 LINE SMOOTH",
"383 516 OFFCURVE",
"349 516 OFFCURVE",
"315 516 CURVE SMOOTH",
"247 516 LINE SMOOTH",
"212 516 OFFCURVE",
"178 516 OFFCURVE",
"178 482 CURVE SMOOTH",
"178 430 LINE",
"110 430 LINE SMOOTH",
"42 430 OFFCURVE",
"42 430 OFFCURVE",
"42 430 CURVE",
"42 362 LINE",
"520 362 LINE",
"520 430 LINE",
"486 430 LINE"
);
},
{
closed = 1;
nodes = (
"452 -14 LINE",
"486 328 LINE",
"76 328 LINE",
"110 -14 LINE"
);
}
);
width = 559;
}
);
unicode = E013;
},
{
glyphname = uniE014;
lastChange = "2013-05-22 04:36:34 +0000";
layers = (
{
layerId = "027024AE-E532-4028-BEC3-F9EC457E971E";
name = Regular;
paths = (
{
closed = 1;
nodes = (
"515 488 OFFCURVE",
"320 488 OFFCURVE",
"308 475 CURVE SMOOTH",
"45 213 LINE SMOOTH",
"39 207 OFFCURVE",
"39 197 OFFCURVE",
"45 191 CURVE SMOOTH",
"236 0 LINE SMOOTH",
"242 -6 OFFCURVE",
"252 -6 OFFCURVE",
"258 0 CURVE SMOOTH",
"520 263 LINE SMOOTH",
"533 275 OFFCURVE",
"534 469 OFFCURVE",
"524 479 CURVE SMOOTH"
);
},
{
closed = 1;
nodes = (
"357 352 OFFCURVE",
"357 387 OFFCURVE",
"379 408 CURVE SMOOTH",
"400 429 OFFCURVE",
"434 429 OFFCURVE",
"456 408 CURVE SMOOTH",
"477 387 OFFCURVE",
"477 352 OFFCURVE",
"456 331 CURVE SMOOTH",
"434 310 OFFCURVE",
"400 310 OFFCURVE",
"379 331 CURVE SMOOTH"
);
}
);
width = 571;
}
);
unicode = E014;
},
{
glyphname = uniE015;
lastChange = "2013-05-22 04:36:46 +0000";
layers = (
{
layerId = "027024AE-E532-4028-BEC3-F9EC457E971E";
name = Regular;
paths = (
{
closed = 1;
nodes = (
"40 184 LINE",
"40 319 LINE",
"579 319 LINE",
"579 184 LINE"
);
},
{
closed = 1;
nodes = (
"377 -18 LINE",
"242 -18 LINE",
"242 521 LINE",
"377 521 LINE"
);
}
);
width = 619;
}
);
unicode = E015;
},
{
glyphname = uniE018;
lastChange = "2013-05-22 04:37:20 +0000";
layers = (
{
layerId = "027024AE-E532-4028-BEC3-F9EC457E971E";
name = Regular;
paths = (
{
closed = 1;
nodes = (
"471 235 OFFCURVE",
"471 235 OFFCURVE",
"471 235 CURVE",
"463 163 LINE",
"429 190 OFFCURVE",
"374 212 OFFCURVE",
"322 212 CURVE SMOOTH",
"270 212 OFFCURVE",
"215 191 OFFCURVE",
"181 163 CURVE",
"173 235 LINE",
"173 235 OFFCURVE",
"173 235 OFFCURVE",
"173 235 CURVE",
"173 257 OFFCURVE",
"153 284 OFFCURVE",
"137 296 CURVE",
"146 385 OFFCURVE",
"230 454 OFFCURVE",
"322 454 CURVE SMOOTH",
"413 454 OFFCURVE",
"497 385 OFFCURVE",
"506 295 CURVE",
"490 283 OFFCURVE",
"471 257 OFFCURVE",
"471 235 CURVE SMOOTH"
);
},
{
closed = 1;
nodes = (
"190 68 LINE",
"183 133 LINE",
"215 164 OFFCURVE",
"264 185 OFFCURVE",
"321 185 CURVE SMOOTH",
"378 185 OFFCURVE",
"426 164 OFFCURVE",
"459 132 CURVE",
"452 68 LINE"
);
},
{
closed = 1;
nodes = (
"127 1 OFFCURVE",
"128 11 OFFCURVE",
"128 39 CURVE",
"85 144 LINE",
"49 145 OFFCURVE",
"20 175 OFFCURVE",
"20 212 CURVE SMOOTH",
"20 250 OFFCURVE",
"50 280 OFFCURVE",
"88 280 CURVE SMOOTH",
"125 280 OFFCURVE",
"156 250 OFFCURVE",
"156 212 CURVE SMOOTH",
"156 212 OFFCURVE",
"156 212 OFFCURVE",
"156 212 CURVE",
"174 43 LINE",
"174 15 OFFCURVE",
"182 1 OFFCURVE",
"155 1 CURVE SMOOTH"
);
},
{
closed = 1;
nodes = (
"514 39 LINE",
"514 11 OFFCURVE",
"516 1 OFFCURVE",
"488 1 CURVE SMOOTH",
"461 1 OFFCURVE",
"468 15 OFFCURVE",
"468 43 CURVE",
"486 212 LINE",
"486 212 OFFCURVE",
"486 212 OFFCURVE",
"486 212 CURVE SMOOTH",
"486 250 OFFCURVE",
"516 280 OFFCURVE",
"554 280 CURVE SMOOTH",
"591 280 OFFCURVE",
"622 250 OFFCURVE",
"622 212 CURVE SMOOTH",
"622 175 OFFCURVE",
"593 145 OFFCURVE",
"556 144 CURVE"
);
}
);
width = 642;
}
);
unicode = E018;
},
{
glyphname = uniE019;
lastChange = "2013-05-30 21:42:10 +0000";
layers = (
{
layerId = "027024AE-E532-4028-BEC3-F9EC457E971E";
name = Regular;
paths = (
{
closed = 1;
nodes = (
"309 -34 LINE",
"40 119 LINE",
"40 459 LINE",
"148 530 LINE",
"443 469 LINE",
"443 148 LINE",
"409 148 LINE",
"409 437 LINE",
"153 498 LINE",
"124 480 LINE",
"373 401 LINE",
"373 58 LINE",
"342 58 LINE",
"341 380 LINE",
"118 474 LINE",
"78 447 LINE",
"309 345 LINE"
);
}
);
width = 483;
}
);
unicode = E019;
},
{
glyphname = uniE020;
lastChange = "2013-10-15 02:19:53 +0000";
layers = (
{
layerId = "027024AE-E532-4028-BEC3-F9EC457E971E";
name = Regular;
paths = (
{
closed = 0;
nodes = (
"353 172 LINE"
);
},
{
closed = 0;
nodes = (
"260 172 LINE"
);
},
{
closed = 1;
nodes = (
"357 480 LINE",
"357 172 LINE",
"307 234 LINE",
"256 172 LINE",
"256 480 LINE",
"60 480 LINE",
"60 18 LINE",
"461 18 LINE",
"461 480 LINE"
);
}
);
width = 520;
}
);
unicode = E020;
},
{
glyphname = uniE021;
lastChange = "2013-05-22 04:37:55 +0000";
layers = (
{
layerId = "027024AE-E532-4028-BEC3-F9EC457E971E";
name = Regular;
paths = (
{
closed = 1;
nodes = (
"524 225 OFFCURVE",
"524 232 OFFCURVE",
"524 240 CURVE SMOOTH",
"524 248 OFFCURVE",
"524 255 OFFCURVE",
"523 262 CURVE",
"435 277 OFFCURVE",
"416 321 OFFCURVE",
"468 395 CURVE",
"459 406 OFFCURVE",
"448 417 OFFCURVE",
"437 426 CURVE",
"364 374 OFFCURVE",
"319 392 OFFCURVE",
"304 481 CURVE",
"297 482 OFFCURVE",
"290 482 OFFCURVE",
"282 482 CURVE SMOOTH",
"275 482 OFFCURVE",
"267 482 OFFCURVE",
"260 481 CURVE",
"245 392 OFFCURVE",
"201 374 OFFCURVE",
"127 426 CURVE",
"116 417 OFFCURVE",
"105 406 OFFCURVE",
"96 395 CURVE",
"148 321 OFFCURVE",
"130 277 OFFCURVE",
"41 262 CURVE",
"40 255 OFFCURVE",
"40 248 OFFCURVE",
"40 240 CURVE SMOOTH",
"40 232 OFFCURVE",
"40 225 OFFCURVE",
"41 218 CURVE",
"130 203 OFFCURVE",
"148 159 OFFCURVE",
"96 85 CURVE",
"105 74 OFFCURVE",
"116 63 OFFCURVE",
"127 54 CURVE",
"201 106 OFFCURVE",
"245 88 OFFCURVE",
"260 -1 CURVE",
"267 -2 OFFCURVE",
"275 -2 OFFCURVE",
"282 -2 CURVE SMOOTH",
"290 -2 OFFCURVE",
"297 -2 OFFCURVE",
"304 -1 CURVE",
"319 88 OFFCURVE",
"364 106 OFFCURVE",
"437 54 CURVE",
"448 63 OFFCURVE",
"459 74 OFFCURVE",
"468 85 CURVE",
"416 159 OFFCURVE",
"435 203 OFFCURVE",
"523 218 CURVE"
);
},
{
closed = 1;
nodes = (
"244 171 OFFCURVE",
"213 202 OFFCURVE",
"213 240 CURVE SMOOTH",
"213 278 OFFCURVE",
"244 309 OFFCURVE",
"282 309 CURVE SMOOTH",
"320 309 OFFCURVE",
"351 278 OFFCURVE",
"351 240 CURVE SMOOTH",
"351 202 OFFCURVE",
"320 171 OFFCURVE",
"282 171 CURVE SMOOTH"
);
}
);
width = 564;
}
);
unicode = E021;
},
{
glyphname = uniE022;
lastChange = "2013-05-22 04:38:04 +0000";
layers = (
{
layerId = "027024AE-E532-4028-BEC3-F9EC457E971E";
name = Regular;
paths = (
{
closed = 1;
nodes = (
"114 105 LINE",
"114 363 LINE",
"179 363 LINE",
"225 427 OFFCURVE",
"314 435 OFFCURVE",
"314 435 CURVE SMOOTH",
"40 435 LINE",
"40 30 LINE",
"557 30 LINE",
"557 240 LINE",
"483 162 LINE",
"483 105 LINE"
);
},
{
closed = 1;
nodes = (
"373 476 LINE",
"373 372 LINE",
"373 372 OFFCURVE",
"151 374 OFFCURVE",
"151 167 CURVE",
"151 167 OFFCURVE",
"196 290 OFFCURVE",
"373 290 CURVE",
"373 163 LINE",
"557 326 LINE"
);
}
);
width = 597;
}
);
unicode = E022;
},
{
glyphname = uniE023;
lastChange = "2013-05-30 21:42:43 +0000";
layers = (
{
layerId = "027024AE-E532-4028-BEC3-F9EC457E971E";
name = Regular;
paths = (
{
closed = 1;
nodes = (
"20 378 LINE",
"528 378 LINE",
"274 68 LINE"
);
}
);
width = 548;
}
);
unicode = E023;
},
{
glyphname = uniE024;
lastChange = "2013-10-15 02:21:07 +0000";
layers = (
{
layerId = "027024AE-E532-4028-BEC3-F9EC457E971E";
name = Regular;
paths = (
{
closed = 1;
nodes = (
"486 225 LINE",
"486 225 OFFCURVE",
"516 225 OFFCURVE",
"516 256 CURVE SMOOTH",
"516 286 OFFCURVE",
"486 286 OFFCURVE",
"486 286 CURVE SMOOTH",
"121 286 LINE SMOOTH",
"121 286 OFFCURVE",
"91 286 OFFCURVE",
"91 256 CURVE SMOOTH",
"91 225 OFFCURVE",
"121 225 OFFCURVE",
"121 225 CURVE"
);
},
{
closed = 1;
nodes = (
"547 362 LINE",
"547 362 OFFCURVE",
"577 362 OFFCURVE",
"577 392 CURVE SMOOTH",
"577 423 OFFCURVE",
"547 423 OFFCURVE",
"547 423 CURVE SMOOTH",
"60 423 LINE SMOOTH",
"60 423 OFFCURVE",
"30 423 OFFCURVE",
"30 392 CURVE SMOOTH",
"30 362 OFFCURVE",
"60 362 OFFCURVE",
"60 362 CURVE"
);
},
{
closed = 1;
nodes = (
"60 149 LINE SMOOTH",
"60 149 OFFCURVE",
"30 149 OFFCURVE",
"30 119 CURVE SMOOTH",
"30 89 OFFCURVE",
"60 89 OFFCURVE",
"60 89 CURVE",
"547 89 LINE",
"547 89 OFFCURVE",
"577 89 OFFCURVE",
"577 119 CURVE SMOOTH",
"577 149 OFFCURVE",
"547 149 OFFCURVE",
"547 149 CURVE SMOOTH"
);
}
);
width = 600;
}
);
unicode = E024;
},
{
glyphname = uniE025;
lastChange = "2013-08-28 20:03:14 +0000";
layers = (
{
layerId = "027024AE-E532-4028-BEC3-F9EC457E971E";
name = Regular;
paths = (
{
closed = 1;
nodes = (
"45 197 OFFCURVE",
"42 196 OFFCURVE",
"57 149 CURVE SMOOTH",
"72 102 OFFCURVE",
"75 103 OFFCURVE",
"75 103 CURVE",
"574 103 LINE",
"574 103 OFFCURVE",
"583 125 OFFCURVE",
"527 299 CURVE SMOOTH",
"471 475 OFFCURVE",
"451 486 OFFCURVE",
"451 486 CURVE",
"45 197 LINE"
);
},
{
closed = 1;
nodes = (
"413 12 OFFCURVE",
"408 6 OFFCURVE",
"400 6 CURVE SMOOTH",
"219 6 LINE SMOOTH",
"212 6 OFFCURVE",
"206 12 OFFCURVE",
"206 20 CURVE SMOOTH",
"206 80 LINE",
"251 80 LINE",
"251 44 LINE",
"368 44 LINE",
"369 80 LINE",
"413 80 LINE",
"413 20 LINE SMOOTH"
);
}
);
width = 600;
}
);
unicode = E025;
},
{
glyphname = uniE026;
lastChange = "2013-10-15 02:23:36 +0000";
layers = (
{
layerId = "027024AE-E532-4028-BEC3-F9EC457E971E";
name = Regular;
paths = (
{
closed = 1;
nodes = (
"475 309 OFFCURVE",
"446 280 OFFCURVE",
"446 251 CURVE SMOOTH",
"446 222 OFFCURVE",
"475 193 OFFCURVE",
"504 193 CURVE SMOOTH",
"533 193 OFFCURVE",
"562 222 OFFCURVE",
"562 251 CURVE SMOOTH",
"562 280 OFFCURVE",
"533 309 OFFCURVE",
"504 309 CURVE SMOOTH"
);
},
{
closed = 1;
nodes = (
"272 309 OFFCURVE",
"243 280 OFFCURVE",
"243 251 CURVE SMOOTH",
"243 222 OFFCURVE",
"272 193 OFFCURVE",
"301 193 CURVE SMOOTH",
"330 193 OFFCURVE",
"359 222 OFFCURVE",
"359 251 CURVE SMOOTH",
"359 280 OFFCURVE",
"330 309 OFFCURVE",
"301 309 CURVE SMOOTH"
);
},
{
closed = 1;
nodes = (
"69 309 OFFCURVE",
"40 280 OFFCURVE",
"40 251 CURVE SMOOTH",
"40 222 OFFCURVE",
"69 193 OFFCURVE",
"98 193 CURVE SMOOTH",
"127 193 OFFCURVE",
"156 222 OFFCURVE",
"156 251 CURVE SMOOTH",
"156 280 OFFCURVE",
"127 309 OFFCURVE",
"98 309 CURVE SMOOTH"
);
}
);
width = 600;
}
);
unicode = E026;
},
{
glyphname = uniE027;
lastChange = "2013-10-15 02:40:32 +0000";
layers = (
{
layerId = "027024AE-E532-4028-BEC3-F9EC457E971E";
name = Regular;
paths = (
{
closed = 1;
nodes = (
"121 267 LINE",
"101 209 LINE",
"135 209 LINE",
"135 176 LINE",
"34 176 LINE",
"34 209 LINE",
"64 209 LINE",
"154 451 LINE",
"212 451 LINE",
"299 209 LINE",
"334 209 LINE",
"334 176 LINE",
"197 176 LINE",
"197 209 LINE",
"236 209 LINE",
"216 267 LINE"
);
},
{
closed = 1;
nodes = (
"207 296 LINE",
"170 402 LINE",
"169 402 LINE",
"131 296 LINE"
);
},
{
closed = 1;
nodes = (
"352 239 OFFCURVE",
"357 251 OFFCURVE",
"367 261 CURVE SMOOTH",
"381 275 OFFCURVE",
"402 282 OFFCURVE",
"446 288 CURVE SMOOTH",
"471 292 OFFCURVE",
"474 292 OFFCURVE",
"474 298 CURVE SMOOTH",
"474 317 LINE SMOOTH",
"474 342 OFFCURVE",
"461 352 OFFCURVE",
"436 352 CURVE SMOOTH",
"425 352 OFFCURVE",
"416 350 OFFCURVE",
"407 345 CURVE",
"414 341 OFFCURVE",
"419 334 OFFCURVE",
"419 324 CURVE SMOOTH",
"419 310 OFFCURVE",
"407 299 OFFCURVE",
"390 299 CURVE SMOOTH",
"370 299 OFFCURVE",
"360 312 OFFCURVE",
"360 327 CURVE SMOOTH",
"360 361 OFFCURVE",
"402 379 OFFCURVE",
"449 379 CURVE SMOOTH",
"504 379 OFFCURVE",
"527 355 OFFCURVE",
"527 313 CURVE SMOOTH",
"527 218 LINE SMOOTH",
"527 209 OFFCURVE",
"531 206 OFFCURVE",
"539 206 CURVE SMOOTH",
"544 206 OFFCURVE",
"549 211 OFFCURVE",
"553 224 CURVE",
"571 216 LINE",
"563 186 OFFCURVE",
"547 174 OFFCURVE",
"522 174 CURVE SMOOTH",
"500 174 OFFCURVE",
"482 185 OFFCURVE",
"480 213 CURVE",
"477 213 LINE",
"465 186 OFFCURVE",
"440 173 OFFCURVE",
"412 173 CURVE SMOOTH",
"376 173 OFFCURVE",
"352 194 OFFCURVE",
"352 225 CURVE SMOOTH"
);
},
{
closed = 1;
nodes = (
"474 274 LINE",
"470 272 OFFCURVE",
"465 272 OFFCURVE",
"454 270 CURVE SMOOTH",
"419 264 OFFCURVE",
"409 256 OFFCURVE",
"409 234 CURVE SMOOTH",
"409 218 OFFCURVE",
"417 206 OFFCURVE",
"437 206 CURVE SMOOTH",
"457 206 OFFCURVE",
"474 223 OFFCURVE",
"474 248 CURVE SMOOTH"
);
},
{
closed = 1;
nodes = (
"46 73 LINE",
"55 55 OFFCURVE",
"64 47 OFFCURVE",
"78 47 CURVE SMOOTH",
"89 47 OFFCURVE",
"96 53 OFFCURVE",
"96 64 CURVE SMOOTH",
"96 77 OFFCURVE",
"86 80 OFFCURVE",
"71 84 CURVE SMOOTH",
"56 88 OFFCURVE",
"41 93 OFFCURVE",
"41 111 CURVE SMOOTH",
"41 125 OFFCURVE",
"52 137 OFFCURVE",
"70 137 CURVE SMOOTH",
"79 137 OFFCURVE",
"88 133 OFFCURVE",
"93 127 CURVE",
"96 137 LINE",
"103 137 LINE",
"103 106 LINE",
"97 106 LINE",
"90 124 OFFCURVE",
"80 130 OFFCURVE",
"69 130 CURVE SMOOTH",
"60 130 OFFCURVE",
"52 125 OFFCURVE",
"52 114 CURVE SMOOTH",
"52 101 OFFCURVE",
"64 98 OFFCURVE",
"77 95 CURVE SMOOTH",
"93 91 OFFCURVE",
"107 87 OFFCURVE",
"107 68 CURVE SMOOTH",
"107 52 OFFCURVE",
"95 40 OFFCURVE",
"78 40 CURVE SMOOTH",
"66 40 OFFCURVE",
"57 45 OFFCURVE",
"50 52 CURVE",
"47 41 LINE",
"40 41 LINE",
"40 73 LINE"
);
},
{
closed = 1;
nodes = (
"134 58 OFFCURVE",
"143 49 OFFCURVE",
"155 49 CURVE SMOOTH",
"163 49 OFFCURVE",
"170 52 OFFCURVE",
"174 62 CURVE",
"180 62 LINE",
"176 48 OFFCURVE",
"166 41 OFFCURVE",
"153 41 CURVE SMOOTH",
"134 41 OFFCURVE",
"122 55 OFFCURVE",
"122 75 CURVE SMOOTH",
"122 95 OFFCURVE",
"136 110 OFFCURVE",
"153 110 CURVE SMOOTH",
"172 110 OFFCURVE",
"181 92 OFFCURVE",
"181 75 CURVE",
"134 75 LINE"
);
},
{
closed = 1;
nodes = (
"169 81 LINE",
"168 95 OFFCURVE",
"163 103 OFFCURVE",
"153 103 CURVE SMOOTH",
"143 103 OFFCURVE",
"136 96 OFFCURVE",
"134 81 CURVE"
);
},
{
closed = 1;
nodes = (
"205 50 LINE",
"205 101 LINE",
"194 101 LINE",
"194 109 LINE",
"216 109 LINE",
"216 91 LINE",
"224 105 OFFCURVE",
"232 110 OFFCURVE",
"241 110 CURVE SMOOTH",
"252 110 OFFCURVE",
"259 102 OFFCURVE",
"259 89 CURVE SMOOTH",
"259 50 LINE",
"270 50 LINE",
"270 42 LINE",
"237 42 LINE",
"237 50 LINE",
"247 50 LINE",
"247 84 LINE SMOOTH",
"247 90 OFFCURVE",
"246 94 OFFCURVE",
"244 97 CURVE SMOOTH",
"241 99 OFFCURVE",
"238 100 OFFCURVE",
"235 100 CURVE SMOOTH",
"225 100 OFFCURVE",
"216 90 OFFCURVE",
"216 79 CURVE SMOOTH",
"216 50 LINE",
"226 50 LINE",
"226 42 LINE",
"194 42 LINE",
"194 50 LINE"
);
},
{
closed = 1;
nodes = (
"299 108 LINE",
"321 108 LINE",
"321 101 LINE",
"299 101 LINE",
"299 59 LINE SMOOTH",
"299 53 OFFCURVE",
"302 49 OFFCURVE",
"308 49 CURVE SMOOTH",
"313 49 OFFCURVE",
"316 53 OFFCURVE",
"319 61 CURVE",
"324 59 LINE",
"320 46 OFFCURVE",
"313 41 OFFCURVE",
"305 41 CURVE SMOOTH",
"294 41 OFFCURVE",
"288 48 OFFCURVE",
"288 59 CURVE SMOOTH",
"288 101 LINE",
"275 101 LINE",
"275 108 LINE",
"288 108 LINE",
"288 126 LINE",
"299 127 LINE"
);
},
{
closed = 1;
nodes = (
"345 50 LINE",
"345 101 LINE",
"333 101 LINE",
"333 109 LINE",
"357 109 LINE",
"357 50 LINE",
"369 50 LINE",
"369 42 LINE",
"333 42 LINE",
"333 50 LINE"
);
},
{
closed = 1;
nodes = (
"342 137 OFFCURVE",
"345 140 OFFCURVE",
"350 140 CURVE SMOOTH",
"355 140 OFFCURVE",
"358 137 OFFCURVE",
"358 132 CURVE SMOOTH",
"358 127 OFFCURVE",
"355 123 OFFCURVE",
"350 123 CURVE SMOOTH",
"345 123 OFFCURVE",
"342 127 OFFCURVE",
"342 132 CURVE SMOOTH"
);
},
{
closed = 1;
nodes = (
"390 50 LINE",
"390 101 LINE",
"379 101 LINE",
"379 109 LINE",
"401 109 LINE",
"401 91 LINE",
"409 105 OFFCURVE",
"418 110 OFFCURVE",
"426 110 CURVE SMOOTH",
"438 110 OFFCURVE",
"444 102 OFFCURVE",
"444 89 CURVE SMOOTH",
"444 50 LINE",
"455 50 LINE",
"455 42 LINE",
"423 42 LINE",
"423 50 LINE",
"433 50 LINE",
"433 84 LINE SMOOTH",
"433 90 OFFCURVE",
"432 94 OFFCURVE",
"429 97 CURVE SMOOTH",
"427 99 OFFCURVE",
"424 100 OFFCURVE",
"421 100 CURVE SMOOTH",
"411 100 OFFCURVE",
"402 90 OFFCURVE",
"402 79 CURVE SMOOTH",
"402 50 LINE",
"412 50 LINE",
"412 42 LINE",
"379 42 LINE",
"379 50 LINE"
);
},
{
closed = 1;
nodes = (
"479 58 OFFCURVE",
"487 49 OFFCURVE",
"499 49 CURVE SMOOTH",
"508 49 OFFCURVE",
"514 52 OFFCURVE",
"518 62 CURVE",
"524 62 LINE",
"520 48 OFFCURVE",
"511 41 OFFCURVE",
"497 41 CURVE SMOOTH",
"478 41 OFFCURVE",
"466 55 OFFCURVE",
"466 75 CURVE SMOOTH",
"466 95 OFFCURVE",
"480 110 OFFCURVE",
"497 110 CURVE SMOOTH",
"517 110 OFFCURVE",
"525 92 OFFCURVE",
"525 75 CURVE",
"478 75 LINE"
);
},
{
closed = 1;
nodes = (
"513 81 LINE",
"512 95 OFFCURVE",
"507 103 OFFCURVE",
"497 103 CURVE SMOOTH",
"487 103 OFFCURVE",
"480 96 OFFCURVE",
"478 81 CURVE"
);
},
{
closed = 1;
nodes = (
"548 50 LINE",
"548 136 LINE",
"536 136 LINE",
"536 143 LINE",
"559 143 LINE",
"559 50 LINE",
"572 50 LINE",
"572 42 LINE",
"536 42 LINE",
"536 50 LINE"
);
}
);
width = 600;
}
);
unicode = E027;
},
{
glyphname = uniE028;
lastChange = "2013-10-15 02:41:20 +0000";
layers = (
{
layerId = "027024AE-E532-4028-BEC3-F9EC457E971E";
name = Regular;
paths = (
{
closed = 1;
nodes = (
"224 446 LINE",
"326 178 LINE",
"257 167 LINE",
"235 227 LINE",
"131 227 LINE",
"111 169 LINE",
"44 169 LINE",
"150 446 LINE"
);
},
{
closed = 1;
nodes = (
"217 280 LINE",
"183 376 LINE",
"149 280 LINE"
);
},
{
closed = 1;
nodes = (
"479 195 LINE",
"461 178 OFFCURVE",
"439 165 OFFCURVE",
"409 165 CURVE SMOOTH",
"374 165 OFFCURVE",
"349 185 OFFCURVE",
"349 223 CURVE SMOOTH",
"349 272 OFFCURVE",
"389 295 OFFCURVE",
"476 302 CURVE",
"476 306 LINE SMOOTH",
"476 325 OFFCURVE",
"464 333 OFFCURVE",
"441 333 CURVE SMOOTH",
"417 333 OFFCURVE",
"393 327 OFFCURVE",
"370 317 CURVE",
"362 365 LINE",
"387 374 OFFCURVE",
"415 381 OFFCURVE",
"450 381 CURVE SMOOTH",
"510 381 OFFCURVE",
"539 362 OFFCURVE",
"539 309 CURVE SMOOTH",
"539 169 LINE",
"484 169 LINE"
);
},
{
closed = 1;
nodes = (
"425 264 OFFCURVE",
"411 249 OFFCURVE",
"411 231 CURVE SMOOTH",
"411 217 OFFCURVE",
"420 210 OFFCURVE",
"435 210 CURVE SMOOTH",
"449 210 OFFCURVE",
"463 216 OFFCURVE",
"476 227 CURVE",
"476 271 LINE"
);
},
{
closed = 1;
nodes = (
"134 35 LINE",
"108 111 LINE",
"81 35 LINE",
"73 35 LINE",
"46 123 LINE",
"55 125 LINE",
"78 50 LINE",
"103 124 LINE",
"113 124 LINE",
"138 50 LINE",
"161 124 LINE",
"170 124 LINE",
"142 35 LINE"
);
},
{
closed = 1;
nodes = (
"232 80 LINE SMOOTH",
"232 89 OFFCURVE",
"228 94 OFFCURVE",
"219 94 CURVE SMOOTH",
"212 94 OFFCURVE",
"205 89 OFFCURVE",
"197 83 CURVE",
"197 36 LINE",
"188 36 LINE",
"188 132 LINE",
"197 134 LINE",
"197 91 LINE",
"204 97 OFFCURVE",
"212 102 OFFCURVE",
"221 102 CURVE SMOOTH",
"234 102 OFFCURVE",
"241 94 OFFCURVE",
"241 82 CURVE SMOOTH",
"241 36 LINE",
"232 36 LINE"
);
},
{
closed = 1;
nodes = (
"265 116 OFFCURVE",
"262 119 OFFCURVE",
"262 122 CURVE SMOOTH",
"262 126 OFFCURVE",
"265 129 OFFCURVE",
"269 129 CURVE SMOOTH",
"273 129 OFFCURVE",
"276 126 OFFCURVE",
"276 122 CURVE SMOOTH",
"276 119 OFFCURVE",
"273 116 OFFCURVE",
"269 116 CURVE SMOOTH"
);
},
{
closed = 1;
nodes = (
"264 100 LINE",
"273 100 LINE",
"273 36 LINE",
"264 36 LINE"
);
},
{
closed = 1;
nodes = (
"308 35 OFFCURVE",
"301 39 OFFCURVE",
"301 51 CURVE SMOOTH",
"301 93 LINE",
"290 93 LINE",
"290 100 LINE",
"301 100 LINE",
"301 123 LINE",
"310 124 LINE",
"310 100 LINE",
"325 100 LINE",
"326 93 LINE",
"310 93 LINE",
"310 52 LINE SMOOTH",
"310 46 OFFCURVE",
"312 43 OFFCURVE",
"320 43 CURVE SMOOTH",
"322 43 OFFCURVE",
"324 43 OFFCURVE",
"326 43 CURVE",
"327 36 LINE",
"325 35 OFFCURVE",
"322 35 OFFCURVE",
"318 35 CURVE SMOOTH"
);
},
{
closed = 1;
nodes = (
"389 80 LINE SMOOTH",
"389 89 OFFCURVE",
"385 94 OFFCURVE",
"376 94 CURVE SMOOTH",
"369 94 OFFCURVE",
"362 89 OFFCURVE",
"354 83 CURVE",
"354 36 LINE",
"345 36 LINE",
"345 100 LINE",
"352 100 LINE",
"354 91 LINE",
"361 97 OFFCURVE",
"369 102 OFFCURVE",
"378 102 CURVE SMOOTH",
"391 102 OFFCURVE",
"398 94 OFFCURVE",
"398 82 CURVE SMOOTH",
"398 36 LINE",
"389 36 LINE"
);
},
{
closed = 1;
nodes = (
"429 34 OFFCURVE",
"416 46 OFFCURVE",
"416 68 CURVE SMOOTH",
"416 89 OFFCURVE",
"428 102 OFFCURVE",
"445 102 CURVE SMOOTH",
"463 102 OFFCURVE",
"472 87 OFFCURVE",
"472 69 CURVE SMOOTH",
"472 68 LINE",
"425 68 LINE",
"426 52 OFFCURVE",
"433 42 OFFCURVE",
"447 42 CURVE SMOOTH",
"456 42 OFFCURVE",
"464 46 OFFCURVE",
"471 52 CURVE",
"472 44 LINE",
"465 38 OFFCURVE",
"457 34 OFFCURVE",
"446 34 CURVE SMOOTH"
);
},
{
closed = 1;
nodes = (
"463 75 LINE",
"462 86 OFFCURVE",
"456 95 OFFCURVE",
"445 95 CURVE SMOOTH",
"435 95 OFFCURVE",
"428 88 OFFCURVE",
"426 75 CURVE"
);
},
{
closed = 1;
nodes = (
"509 15 OFFCURVE",
"503 11 OFFCURVE",
"494 11 CURVE SMOOTH",
"492 11 OFFCURVE",
"491 11 OFFCURVE",
"490 12 CURVE",
"489 20 LINE",
"490 19 OFFCURVE",
"492 19 OFFCURVE",
"494 19 CURVE SMOOTH",
"500 19 OFFCURVE",
"503 22 OFFCURVE",
"506 29 CURVE SMOOTH",
"509 35 LINE",
"483 100 LINE",
"492 101 LINE",
"513 46 LINE",
"533 100 LINE",
"543 100 LINE",
"514 27 LINE SMOOTH"
);
}
);
width = 600;
}
);
unicode = E028;
},
{
glyphname = uniE029;
lastChange = "2013-10-15 02:42:25 +0000";
layers = (
{
layerId = "027024AE-E532-4028-BEC3-F9EC457E971E";
name = Regular;
paths = (
{
closed = 1;
nodes = (
"340 176 LINE",
"202 176 LINE",
"202 189 LINE",
"234 199 LINE",
"213 259 LINE",
"123 259 LINE",
"103 201 LINE",
"130 189 LINE",
"130 176 LINE",
"37 176 LINE",
"37 191 LINE",
"69 204 LINE",
"164 444 LINE",
"216 444 LINE",
"307 203 LINE",
"340 191 LINE"
);
},
{
closed = 1;
nodes = (
"165 382 LINE",
"131 281 LINE",
"205 281 LINE",
"169 382 LINE"
);
},
{
closed = 1;
nodes = (
"532 204 OFFCURVE",
"538 195 OFFCURVE",
"561 193 CURVE",
"562 180 LINE",
"548 176 OFFCURVE",
"530 172 OFFCURVE",
"513 172 CURVE SMOOTH",
"492 172 OFFCURVE",
"480 180 OFFCURVE",
"476 199 CURVE",
"470 199 LINE",
"451 183 OFFCURVE",
"433 172 OFFCURVE",
"410 172 CURVE SMOOTH",
"379 172 OFFCURVE",
"356 189 OFFCURVE",
"356 219 CURVE SMOOTH",
"356 255 OFFCURVE",
"390 279 OFFCURVE",
"472 284 CURVE",
"472 307 LINE SMOOTH",
"472 338 OFFCURVE",
"460 349 OFFCURVE",
"427 349 CURVE SMOOTH",
"421 349 OFFCURVE",
"415 348 OFFCURVE",
"410 347 CURVE",
"416 340 OFFCURVE",
"420 334 OFFCURVE",
"420 324 CURVE SMOOTH",
"420 310 OFFCURVE",
"411 298 OFFCURVE",
"393 298 CURVE SMOOTH",
"376 298 OFFCURVE",
"364 311 OFFCURVE",
"364 326 CURVE SMOOTH",
"364 356 OFFCURVE",
"411 375 OFFCURVE",
"458 375 CURVE SMOOTH",
"509 375 OFFCURVE",
"532 358 OFFCURVE",
"532 315 CURVE SMOOTH",
"532 220 LINE SMOOTH"
);
},
{
closed = 1;
nodes = (
"430 267 OFFCURVE",
"416 253 OFFCURVE",
"416 233 CURVE SMOOTH",
"416 214 OFFCURVE",
"426 204 OFFCURVE",
"446 204 CURVE SMOOTH",
"454 204 OFFCURVE",
"463 207 OFFCURVE",
"472 212 CURVE",
"472 270 LINE"
);
},
{
closed = 1;
nodes = (
"159 41 LINE",
"116 41 LINE",
"116 45 LINE",
"131 48 LINE",
"131 120 LINE",
"129 120 LINE",
"98 41 LINE",
"91 41 LINE",
"60 120 LINE",
"59 120 LINE",
"59 49 LINE",
"71 45 LINE",
"71 41 LINE",
"40 41 LINE",
"40 45 LINE",
"52 49 LINE",
"52 122 LINE",
"40 125 LINE",
"40 128 LINE",
"73 128 LINE",
"78 114 LINE",
"98 60 LINE",
"100 60 LINE",
"120 114 LINE",
"125 128 LINE",
"159 128 LINE",
"159 125 LINE",
"145 122 LINE",
"145 48 LINE",
"159 45 LINE"
);
},
{
closed = 1;
nodes = (
"180 59 OFFCURVE",
"187 48 OFFCURVE",
"203 48 CURVE SMOOTH",
"210 48 OFFCURVE",
"215 50 OFFCURVE",
"222 54 CURVE",
"224 52 LINE",
"215 43 OFFCURVE",
"207 39 OFFCURVE",
"198 39 CURVE SMOOTH",
"180 39 OFFCURVE",
"167 52 OFFCURVE",
"167 71 CURVE SMOOTH",
"167 91 OFFCURVE",
"181 106 OFFCURVE",
"198 106 CURVE SMOOTH",
"216 106 OFFCURVE",
"224 91 OFFCURVE",
"224 76 CURVE",
"180 76 LINE"
);
},
{
closed = 1;
nodes = (
"210 94 OFFCURVE",
"205 101 OFFCURVE",
"197 101 CURVE SMOOTH",
"188 101 OFFCURVE",
"181 93 OFFCURVE",
"180 80 CURVE",
"210 81 LINE"
);
},
{
closed = 1;
nodes = (
"273 88 OFFCURVE",
"270 92 OFFCURVE",
"270 97 CURVE",
"266 98 OFFCURVE",
"260 92 OFFCURVE",
"257 87 CURVE",
"257 47 LINE",
"267 44 LINE",
"267 41 LINE",
"235 41 LINE",
"235 44 LINE",
"245 47 LINE",
"245 94 LINE",
"235 98 LINE",
"235 101 LINE",
"255 106 LINE",
"257 105 LINE",
"256 93 LINE",
"257 92 LINE",
"263 102 OFFCURVE",
"268 106 OFFCURVE",
"275 106 CURVE SMOOTH",
"281 106 OFFCURVE",
"286 102 OFFCURVE",
"286 97 CURVE SMOOTH",
"286 91 OFFCURVE",
"282 88 OFFCURVE",
"278 88 CURVE SMOOTH"
);
},
{
closed = 1;
nodes = (
"334 84 OFFCURVE",
"331 89 OFFCURVE",
"331 93 CURVE SMOOTH",
"331 96 OFFCURVE",
"332 99 OFFCURVE",
"333 100 CURVE",
"332 101 OFFCURVE",
"330 101 OFFCURVE",
"328 101 CURVE SMOOTH",
"317 101 OFFCURVE",
"306 92 OFFCURVE",
"306 73 CURVE SMOOTH",
"306 57 OFFCURVE",
"316 48 OFFCURVE",
"329 48 CURVE SMOOTH",
"336 48 OFFCURVE",
"340 50 OFFCURVE",
"347 53 CURVE",
"348 51 LINE",
"341 43 OFFCURVE",
"333 39 OFFCURVE",
"324 39 CURVE SMOOTH",
"306 39 OFFCURVE",
"293 52 OFFCURVE",
"293 71 CURVE SMOOTH",
"293 91 OFFCURVE",
"307 106 OFFCURVE",
"327 106 CURVE SMOOTH",
"340 106 OFFCURVE",
"347 100 OFFCURVE",
"347 93 CURVE SMOOTH",
"347 88 OFFCURVE",
"344 84 OFFCURVE",
"339 84 CURVE SMOOTH"
);
},
{
closed = 1;
nodes = (
"429 44 LINE",
"408 39 LINE",
"407 40 LINE",
"408 51 LINE",
"406 51 LINE",
"398 43 OFFCURVE",
"392 39 OFFCURVE",
"384 39 CURVE SMOOTH",
"372 39 OFFCURVE",
"366 48 OFFCURVE",
"366 59 CURVE SMOOTH",
"366 95 LINE",
"357 99 LINE",
"357 101 LINE",
"377 106 LINE",
"379 105 LINE",
"379 64 LINE SMOOTH",
"379 53 OFFCURVE",
"382 48 OFFCURVE",
"391 48 CURVE SMOOTH",
"396 48 OFFCURVE",
"401 51 OFFCURVE",
"406 54 CURVE",
"406 95 LINE",
"397 99 LINE",
"397 101 LINE",
"418 106 LINE",
"419 105 LINE",
"419 50 LINE",
"429 47 LINE"
);
},
{
closed = 1;
nodes = (
"476 88 OFFCURVE",
"473 92 OFFCURVE",
"474 97 CURVE",
"469 98 OFFCURVE",
"464 92 OFFCURVE",
"460 87 CURVE",
"460 47 LINE",
"471 44 LINE",
"471 41 LINE",
"438 41 LINE",
"438 44 LINE",
"448 47 LINE",
"448 94 LINE",
"438 98 LINE",
"438 101 LINE",
"459 106 LINE",
"460 105 LINE",
"459 93 LINE",
"460 92 LINE",
"466 102 OFFCURVE",
"472 106 OFFCURVE",
"479 106 CURVE SMOOTH",
"485 106 OFFCURVE",
"489 102 OFFCURVE",
"489 97 CURVE SMOOTH",
"489 91 OFFCURVE",
"485 88 OFFCURVE",
"481 88 CURVE SMOOTH"
);
},
{
closed = 1;
nodes = (
"521 17 OFFCURVE",
"515 12 OFFCURVE",
"507 12 CURVE SMOOTH",
"500 12 OFFCURVE",
"497 16 OFFCURVE",
"497 20 CURVE SMOOTH",
"497 24 OFFCURVE",
"500 27 OFFCURVE",
"504 27 CURVE SMOOTH",
"509 27 OFFCURVE",
"511 25 OFFCURVE",
"514 21 CURVE",
"517 23 OFFCURVE",
"519 27 OFFCURVE",
"521 31 CURVE SMOOTH",
"525 40 LINE",
"500 98 LINE",
"492 100 LINE",
"492 104 LINE",
"523 104 LINE",
"523 101 LINE",
"515 98 LINE",
"531 56 LINE",
"532 56 LINE",
"546 97 LINE",
"536 101 LINE",
"536 104 LINE",
"562 104 LINE",
"562 100 LINE",
"553 96 LINE",
"526 31 LINE SMOOTH"
);
}
);
width = 600;
}
);
unicode = E029;
},
{
glyphname = uniE030;
lastChange = "2013-10-15 02:54:52 +0000";
layers = (
{
layerId = "027024AE-E532-4028-BEC3-F9EC457E971E";
name = Regular;
paths = (
{
closed = 1;
nodes = (
"253 500 OFFCURVE",
"251 495 OFFCURVE",
"255 492 CURVE SMOOTH",
"315 451 OFFCURVE",
"355 383 OFFCURVE",
"355 304 CURVE SMOOTH",
"355 179 OFFCURVE",
"253 78 OFFCURVE",
"128 78 CURVE SMOOTH",
"115 78 OFFCURVE",
"99 78 OFFCURVE",
"86 80 CURVE SMOOTH",
"81 81 OFFCURVE",
"90 67 OFFCURVE",
"100 60 CURVE SMOOTH",
"143 24 OFFCURVE",
"198 3 OFFCURVE",
"258 3 CURVE SMOOTH",
"395 3 OFFCURVE",
"507 114 OFFCURVE",
"507 251 CURVE SMOOTH",
"507 389 OFFCURVE",
"395 500 OFFCURVE",
"258 500 CURVE SMOOTH"
);
}
);
width = 600;
}
);
unicode = E030;
},
{
glyphname = uniE031;
lastChange = "2013-10-15 03:09:37 +0000";
layers = (
{
layerId = "027024AE-E532-4028-BEC3-F9EC457E971E";
name = Regular;
paths = (
{
closed = 1;
nodes = (
"484 305 OFFCURVE",
"484 198 OFFCURVE",
"418 133 CURVE SMOOTH",
"352 67 OFFCURVE",
"246 67 OFFCURVE",
"180 133 CURVE SMOOTH",
"114 198 OFFCURVE",
"114 305 OFFCURVE",
"180 371 CURVE SMOOTH",
"246 436 OFFCURVE",
"352 436 OFFCURVE",
"418 371 CURVE SMOOTH"
);
},
{
closed = 1;
nodes = (
"171 435 OFFCURVE",
"171 435 OFFCURVE",
"171 435 CURVE SMOOTH",
"171 435 OFFCURVE",
"171 435 OFFCURVE",
"170 435 CURVE SMOOTH",
"170 435 OFFCURVE",
"170 435 OFFCURVE",
"170 435 CURVE SMOOTH",
"126 435 LINE SMOOTH",
"120 435 OFFCURVE",
"116 430 OFFCURVE",
"116 425 CURVE SMOOTH",
"116 381 LINE SMOOTH",
"116 377 OFFCURVE",
"116 373 OFFCURVE",
"117 369 CURVE",
"125 382 OFFCURVE",
"135 394 OFFCURVE",
"146 405 CURVE SMOOTH",
"157 416 OFFCURVE",
"169 426 OFFCURVE",
"181 434 CURVE",
"179 435 OFFCURVE",
"175 435 OFFCURVE",
"172 435 CURVE"
);
},
{
closed = 1;
nodes = (
"84 296 OFFCURVE",
"81 292 OFFCURVE",
"78 290 CURVE SMOOTH",
"47 259 LINE SMOOTH",
"43 255 OFFCURVE",
"43 248 OFFCURVE",
"47 244 CURVE SMOOTH",
"78 213 LINE SMOOTH",
"81 211 OFFCURVE",
"84 207 OFFCURVE",
"87 206 CURVE",
"84 221 OFFCURVE",
"82 236 OFFCURVE",
"82 251 CURVE",
"82 252 LINE SMOOTH",
"82 267 OFFCURVE",
"84 282 OFFCURVE",
"87 297 CURVE"
);
},
{
closed = 1;
nodes = (
"116 131 OFFCURVE",
"116 126 OFFCURVE",
"116 123 CURVE SMOOTH",
"116 78 LINE SMOOTH",
"116 73 OFFCURVE",
"120 68 OFFCURVE",
"126 68 CURVE",
"126 68 OFFCURVE",
"126 68 OFFCURVE",
"126 68 CURVE",
"170 68 LINE SMOOTH",
"171 68 OFFCURVE",
"171 68 OFFCURVE",
"172 68 CURVE SMOOTH",
"175 68 OFFCURVE",
"179 68 OFFCURVE",
"181 69 CURVE",
"169 77 OFFCURVE",
"157 87 OFFCURVE",
"146 98 CURVE SMOOTH",
"135 109 OFFCURVE",
"125 121 OFFCURVE",
"117 134 CURVE"
);
},
{
closed = 1;
nodes = (
"330 36 OFFCURVE",
"315 35 OFFCURVE",
"300 35 CURVE SMOOTH",
"299 35 LINE SMOOTH",
"284 35 OFFCURVE",
"268 36 OFFCURVE",
"253 39 CURVE",
"255 36 OFFCURVE",
"258 33 OFFCURVE",
"261 31 CURVE SMOOTH",
"292 0 LINE SMOOTH",
"294 -3 OFFCURVE",
"297 -4 OFFCURVE",
"299 -4 CURVE SMOOTH",
"302 -4 OFFCURVE",
"304 -3 OFFCURVE",
"306 0 CURVE SMOOTH",
"338 31 LINE SMOOTH",
"340 33 OFFCURVE",
"343 36 OFFCURVE",
"345 39 CURVE"
);
},
{
closed = 1;
nodes = (
"473 121 OFFCURVE",
"464 109 OFFCURVE",
"453 98 CURVE SMOOTH",
"442 87 OFFCURVE",
"430 77 OFFCURVE",
"417 69 CURVE",
"420 68 OFFCURVE",
"424 68 OFFCURVE",
"427 68 CURVE SMOOTH",
"427 68 OFFCURVE",
"427 68 OFFCURVE",
"427 68 CURVE SMOOTH",
"428 68 OFFCURVE",
"428 68 OFFCURVE",
"428 68 CURVE SMOOTH",
"472 68 LINE",
"472 68 OFFCURVE",
"472 68 OFFCURVE",
"472 68 CURVE",
"478 68 OFFCURVE",
"483 73 OFFCURVE",
"483 78 CURVE",
"483 123 LINE",
"483 126 OFFCURVE",
"483 131 OFFCURVE",
"482 134 CURVE"
);
},
{
closed = 1;
nodes = (
"518 267 OFFCURVE",
"518 236 OFFCURVE",
"511 206 CURVE",
"514 207 OFFCURVE",
"518 211 OFFCURVE",
"520 213 CURVE SMOOTH",
"551 244 LINE SMOOTH",
"555 248 OFFCURVE",
"555 255 OFFCURVE",
"551 259 CURVE SMOOTH",
"520 290 LINE SMOOTH",
"518 292 OFFCURVE",
"514 296 OFFCURVE",
"511 297 CURVE"
);
},
{
closed = 1;
nodes = (
"424 435 OFFCURVE",
"420 435 OFFCURVE",
"417 434 CURVE",
"430 426 OFFCURVE",
"442 416 OFFCURVE",
"453 405 CURVE SMOOTH",
"464 394 OFFCURVE",
"473 382 OFFCURVE",
"482 369 CURVE",
"483 373 OFFCURVE",
"483 377 OFFCURVE",
"483 381 CURVE",
"483 425 LINE",
"483 430 OFFCURVE",
"478 435 OFFCURVE",
"472 435 CURVE SMOOTH",
"472 435 OFFCURVE",
"472 435 OFFCURVE",
"472 435 CURVE SMOOTH",
"428 435 LINE SMOOTH",
"428 435 OFFCURVE",
"428 435 OFFCURVE",
"428 435 CURVE SMOOTH",
"428 435 OFFCURVE",
"428 435 OFFCURVE",
"427 435 CURVE SMOOTH",
"427 435 OFFCURVE",
"427 435 OFFCURVE",
"427 435 CURVE"
);
},
{
closed = 1;
nodes = (
"297 507 OFFCURVE",
"294 506 OFFCURVE",
"292 504 CURVE SMOOTH",
"261 472 LINE SMOOTH",
"258 470 OFFCURVE",
"255 467 OFFCURVE",
"253 464 CURVE",
"268 467 OFFCURVE",
"284 469 OFFCURVE",
"299 469 CURVE SMOOTH",
"299 469 LINE SMOOTH",
"315 469 OFFCURVE",
"330 467 OFFCURVE",
"345 464 CURVE",
"343 467 OFFCURVE",
"340 470 OFFCURVE",
"338 472 CURVE SMOOTH",
"306 504 LINE SMOOTH",
"304 506 OFFCURVE",
"302 507 OFFCURVE",
"299 507 CURVE"
);
},
{
closed = 0;
nodes = (
"181 434 LINE",
"169 426 OFFCURVE",
"157 416 OFFCURVE",
"146 405 CURVE SMOOTH",
"135 394 OFFCURVE",
"125 382 OFFCURVE",
"117 369 CURVE",
"117 367 OFFCURVE",
"119 365 OFFCURVE",
"121 365 CURVE",
"185 430 LINE",
"185 432 OFFCURVE",
"184 433 OFFCURVE",
"181 434 CURVE"
);
},
{
closed = 1;
nodes = (
"89 298 OFFCURVE",
"88 298 OFFCURVE",
"87 297 CURVE",
"84 282 OFFCURVE",
"82 267 OFFCURVE",
"82 252 CURVE SMOOTH",
"82 251 LINE SMOOTH",
"82 236 OFFCURVE",
"84 221 OFFCURVE",
"87 206 CURVE",
"88 205 OFFCURVE",
"89 205 OFFCURVE",
"90 205 CURVE SMOOTH",
"91 205 OFFCURVE",
"92 205 OFFCURVE",
"93 206 CURVE",
"93 297 LINE",
"92 298 OFFCURVE",
"91 298 OFFCURVE",
"90 298 CURVE"
);
},
{
closed = 1;
nodes = (
"119 138 OFFCURVE",
"117 136 OFFCURVE",
"117 134 CURVE",
"125 121 OFFCURVE",
"135 109 OFFCURVE",
"146 98 CURVE SMOOTH",
"157 87 OFFCURVE",
"169 77 OFFCURVE",
"181 69 CURVE",
"184 70 OFFCURVE",
"185 71 OFFCURVE",
"185 74 CURVE",
"121 138 LINE"
);
},
{
closed = 1;
nodes = (
"254 45 LINE",
"252 44 OFFCURVE",
"252 42 OFFCURVE",
"253 39 CURVE",
"268 36 OFFCURVE",
"284 35 OFFCURVE",
"299 35 CURVE SMOOTH",
"300 35 LINE SMOOTH",
"315 35 OFFCURVE",
"330 36 OFFCURVE",
"345 39 CURVE",
"346 42 OFFCURVE",
"346 44 OFFCURVE",
"344 45 CURVE"
);
},
{
closed = 1;
nodes = (
"413 74 LINE",
"413 71 OFFCURVE",
"415 70 OFFCURVE",
"417 69 CURVE",
"430 77 OFFCURVE",
"442 87 OFFCURVE",
"453 98 CURVE SMOOTH",
"464 109 OFFCURVE",
"473 121 OFFCURVE",
"482 134 CURVE",
"481 136 OFFCURVE",
"479 138 OFFCURVE",
"477 138 CURVE"
);
},
{
closed = 1;
nodes = (
"507 298 OFFCURVE",
"506 298 OFFCURVE",
"505 297 CURVE",
"505 206 LINE",
"506 205 OFFCURVE",
"507 205 OFFCURVE",
"508 205 CURVE SMOOTH",
"509 205 OFFCURVE",
"510 205 OFFCURVE",
"511 206 CURVE",
"518 236 OFFCURVE",
"518 267 OFFCURVE",
"511 297 CURVE",
"510 298 OFFCURVE",
"509 298 OFFCURVE",
"508 298 CURVE"
);
},
{
closed = 0;
nodes = (
"417 434 LINE",
"415 433 OFFCURVE",
"413 432 OFFCURVE",
"413 430 CURVE",
"477 365 LINE",
"479 365 OFFCURVE",
"481 367 OFFCURVE",
"482 369 CURVE",
"473 382 OFFCURVE",
"464 394 OFFCURVE",
"453 405 CURVE SMOOTH",
"442 416 OFFCURVE",
"430 426 OFFCURVE",
"417 434 CURVE"
);
},
{
closed = 0;
nodes = (
"299 469 LINE",
"299 469 LINE SMOOTH",
"284 469 OFFCURVE",
"268 467 OFFCURVE",
"253 464 CURVE",
"252 462 OFFCURVE",
"252 460 OFFCURVE",
"254 458 CURVE",
"344 458 LINE",
"346 460 OFFCURVE",
"346 462 OFFCURVE",
"345 464 CURVE",
"330 467 OFFCURVE",
"315 469 OFFCURVE",
"299 469 CURVE"
);
}
);
width = 600;
}
);
unicode = E031;
},
{
glyphname = uniE032;
lastChange = "2013-10-15 03:16:28 +0000";
layers = (
{
layerId = "027024AE-E532-4028-BEC3-F9EC457E971E";
name = Regular;
paths = (
{
closed = 1;
nodes = (
"256 217 LINE",
"114 360 LINE",
"18 264 LINE",
"256 26 LINE",
"588 358 LINE",
"493 453 LINE"
);
}
);
width = 600;
}
);
unicode = E032;
},
{
glyphname = uniE033;
lastChange = "2013-10-15 03:17:17 +0000";
layers = (
{
layerId = "027024AE-E532-4028-BEC3-F9EC457E971E";
name = Regular;
paths = (
{
closed = 1;
nodes = (
"159 10 LINE",
"64 105 LINE",
"445 486 LINE",
"540 391 LINE"
);
},
{
closed = 1;
nodes = (
"540 105 LINE",
"445 10 LINE",
"64 391 LINE",
"159 486 LINE"
);
}
);
width = 600;
}
);
unicode = E033;
},
{
glyphname = uniE034;
lastChange = "2013-10-15 03:24:17 +0000";
layers = (
{
layerId = "027024AE-E532-4028-BEC3-F9EC457E971E";
name = Regular;
paths = (
{
closed = 1;
nodes = (
"138 171 LINE",
"432 464 LINE",
"527 369 LINE",
"234 75 LINE"
);
},
{
closed = 1;
nodes = (
"109 41 LINE",
"106 41 OFFCURVE",
"105 43 OFFCURVE",
"105 46 CURVE",
"124 150 LINE",
"213 61 LINE"
);
},
{
closed = 0;
nodes = (
"217 152 LINE"
);
},
{
closed = 0;
nodes = (
"526 368 LINE"
);
}
